<svg xmlns="http://www.w3.org/2000/svg" width="1440" height="585" viewBox="0 0 1440 585"><defs><linearGradient id="3ff0a" x1="21.88" x2="720" y1="-117.11" y2="585" gradientUnits="userSpaceOnUse"><stop offset="0" stop-color="#1a8dff"/><stop offset="1" stop-color="#1a8dff"/></linearGradient><clipPath id="3ff0b"><path d="M0 0h1440v585H0z"/></clipPath></defs><g><g><g><path fill="url(#3ff0a)" d="M0 0h1440v585H0z"/></g><g clip-path="url(#3ff0b)" opacity=".23"><path fill="#6fb7ff" d="M1135 398c251.842 0 456-204.158 456-456s-204.158-456-456-456S679-309.842 679-58s204.158 456 456 456z"/></g><g clip-path="url(#3ff0b)" opacity=".23"><path fill="#6fb7ff" d="M1310.5 600c96.926 0 175.5-78.574 175.5-175.5S1407.426 249 1310.5 249 1135 327.574 1135 424.5 1213.574 600 1310.5 600z"/></g><g clip-path="url(#3ff0b)" opacity=".23"><path fill="#157ee6" d="M1002.5 669c58.818 0 106.5-47.682 106.5-106.5S1061.318 456 1002.5 456 896 503.682 896 562.5 943.682 669 1002.5 669z"/></g><g clip-path="url(#3ff0b)" opacity=".23"><path fill="#157ee6" d="M1109.5 504c141.109 0 255.5-114.391 255.5-255.5C1365 107.391 1250.609-7 1109.5-7 968.391-7 854 107.391 854 248.5 854 389.609 968.391 504 1109.5 504z"/></g><g clip-path="url(#3ff0b)" opacity=".23"><path fill="#6fb7ff" d="M210.5 320C325.651 320 419 226.651 419 111.5S325.651-97 210.5-97 2-3.651 2 111.5 95.349 320 210.5 320z"/></g><g clip-path="url(#3ff0b)" opacity=".23"><path fill="#1072d4" d="M418.5 799C613.733 799 772 640.733 772 445.5S613.733 92 418.5 92 65 250.267 65 445.5 223.267 799 418.5 799z"/></g></g></g></svg>