<svg xmlns="http://www.w3.org/2000/svg" width="37" height="37" viewBox="0 0 37 37"><defs><clipPath id="p92pa"><path d="M8.747 0h22.849v15.943H8.746z"/></clipPath></defs><g><g><g/><g clip-path="url(#p92pa)"><path fill="#10bf31" d="M18.09 15.943c-.633 0-1.24-.252-1.688-.702L9.446 8.264a2.4 2.4 0 0 1 0-3.388 2.383 2.383 0 0 1 3.378 0l5.266 5.284L27.52.702a2.383 2.383 0 0 1 3.377 0 2.401 2.401 0 0 1 0 3.388L19.78 15.24a2.384 2.384 0 0 1-1.689.702"/></g></g><g><path fill="#ffd469" d="M6.97 37a2.377 2.377 0 0 1-1.69-.7 2.4 2.4 0 0 1 0-3.389L16.399 21.76a2.383 2.383 0 0 1 3.377 0l6.956 6.977a2.4 2.4 0 0 1 0 3.388 2.384 2.384 0 0 1-3.378 0l-5.267-5.284L8.658 36.3a2.377 2.377 0 0 1-1.688.702"/></g><g><path fill="#6b3fb2" d="M6.55 27.861a2.377 2.377 0 0 1-1.689-.702 2.4 2.4 0 0 1 0-3.388l5.267-5.283L.699 9.031a2.401 2.401 0 0 1 0-3.388 2.382 2.382 0 0 1 3.378 0l11.117 11.151a2.4 2.4 0 0 1 0 3.388L8.238 27.16a2.376 2.376 0 0 1-1.688.702"/></g><g><path fill="#1a8dff" d="M33.79 32.06a2.377 2.377 0 0 1-1.689-.703L20.984 20.206a2.4 2.4 0 0 1 0-3.388L27.94 9.84a2.383 2.383 0 0 1 3.377 0 2.4 2.4 0 0 1 0 3.387l-5.267 5.284 9.429 9.458a2.401 2.401 0 0 1 0 3.388 2.377 2.377 0 0 1-1.689.701"/></g></g></svg>